<?xml version="1.0" encoding="utf-8"?>
<!-- Generator: Adobe Illustrator 19.2.1, SVG Export Plug-In . SVG Version: 6.00 Build 0)  -->
<svg version="1.1" id="Layer_1" xmlns="http://www.w3.org/2000/svg" xmlns:xlink="http://www.w3.org/1999/xlink" x="0px" y="0px"
	 viewBox="0 0 207.5 132.2" style="enable-background:new 0 0 207.5 132.2;" xml:space="preserve">
<style type="text/css">
	.st0{fill:none;stroke:#B93D2E;stroke-width:0.2;stroke-miterlimit:10;}
</style>
<path class="st0" d="M196.2,123.5V4.8c0-2.6-2.1-4.7-4.7-4.7H16c-2.6,0-4.7,2.1-4.7,4.7v118.7 M196.2,123.5 M11.3,123.5
	 M191.8,117.5h-176V7.5h176V117.5z"/>
<g>
	<path class="st0" d="M207.3,130.3c0,1-0.7,1.8-1.6,1.8H1.7c-0.9,0-1.6-0.8-1.6-1.8v-5c0-1,0.7-1.8,1.6-1.8h204.1
		c0.9,0,1.6,0.8,1.6,1.8L207.3,130.3L207.3,130.3z"/>
</g>
<path class="st0" d="M84.2,123.5"/>
<path class="st0" d="M122.5,123.5"/>
<path class="st0" d="M84.2,123.5v1.5c0,1,0.9,1.9,1.9,1.9h34.5c1,0,1.9-0.9,1.9-1.9v-1.5"/>
<circle class="st0" cx="103.8" cy="3.4" r="2.1"/>
</svg>
