<svg width="40" height="40" viewBox="0 0 40 40" fill="none" xmlns="http://www.w3.org/2000/svg">
<circle cx="20" cy="20" r="19.5" stroke="#8FE1B6"/>
<path d="M28.9459 16.2894C28.9021 15.3314 28.7499 14.6771 28.5275 14.1047C28.3015 13.5042 27.9472 12.9602 27.4894 12.5106C27.0399 12.0528 26.4958 11.6983 25.8953 11.4723C25.3227 11.2499 24.6686 11.0979 23.7106 11.0544C22.7508 11.0104 22.4442 11 20 11C17.5558 11 17.2492 11.0104 16.2894 11.0541C15.3314 11.0979 14.6773 11.2501 14.1047 11.4725C13.5042 11.6985 12.9602 12.0528 12.5106 12.5106C12.0528 12.9601 11.6983 13.5041 11.4723 14.1046C11.2499 14.6771 11.0979 15.3314 11.0544 16.2892C11.0104 17.2492 11 17.5557 11 19.9999C11 22.4442 11.0104 22.7508 11.0544 23.7106C11.0981 24.6685 11.2502 25.3227 11.4727 25.8953C11.6986 26.4957 12.0529 27.0398 12.5108 27.4892C12.9602 27.9471 13.5043 28.3014 14.1049 28.5273C14.6773 28.7499 15.3315 28.9019 16.2895 28.9458C17.2494 28.9896 17.556 28.9999 20.0001 28.9999C22.4443 28.9999 22.751 28.9896 23.7108 28.9458C24.6688 28.9019 25.3229 28.7499 25.8954 28.5273C27.1043 28.0598 28.06 27.1042 28.5275 25.8953C28.7501 25.3227 28.9021 24.6685 28.9459 23.7106C28.9896 22.7507 29 22.4442 29 20C29 17.5557 28.9896 17.2492 28.9459 16.2894ZM27.3258 23.6369C27.2859 24.5144 27.1392 24.991 27.016 25.308C26.7132 26.093 26.0929 26.7133 25.3079 27.0161C24.9908 27.1393 24.5143 27.286 23.6367 27.326C22.6879 27.3694 22.4033 27.3784 20 27.3784C17.5966 27.3784 17.3121 27.3694 16.3631 27.326C15.4857 27.286 15.0092 27.1393 14.692 27.0161C14.3011 26.8718 13.9475 26.6418 13.6572 26.3428C13.3582 26.0525 13.1282 25.699 12.9839 25.308C12.8607 24.991 12.714 24.5144 12.674 23.6369C12.6308 22.6879 12.6216 22.4033 12.6216 20.0001C12.6216 17.5969 12.6308 17.3123 12.674 16.3633C12.7141 15.4857 12.8607 15.0092 12.9839 14.6921C13.1282 14.3011 13.3584 13.9475 13.6572 13.6572C13.9475 13.3582 14.3011 13.1282 14.6921 12.984C15.0092 12.8607 15.4857 12.7141 16.3633 12.674C17.3122 12.6308 17.5969 12.6216 20 12.6216H19.9999C22.403 12.6216 22.6877 12.6308 23.6367 12.6742C24.5143 12.7141 24.9907 12.8608 25.3079 12.984C25.6987 13.1283 26.0524 13.3584 26.3427 13.6572C26.6416 13.9475 26.8717 14.3011 27.0159 14.6921C27.1392 15.0092 27.2859 15.4857 27.3258 16.3633C27.3691 17.3122 27.3783 17.5969 27.3783 20C27.3783 22.4033 27.3692 22.6878 27.3258 23.6369Z" fill="url(#paint0_linear)"/>
<path d="M19.9999 15.3782C17.4475 15.3782 15.3783 17.4474 15.3783 19.9998C15.3783 22.5522 17.4475 24.6214 19.9999 24.6214C22.5524 24.6214 24.6215 22.5522 24.6215 19.9998C24.6215 17.4474 22.5524 15.3782 19.9999 15.3782ZM19.9999 22.9998C18.3431 22.9997 16.9999 21.6566 17 19.9997C17 18.343 18.3431 16.9998 20 16.9998C21.6569 16.9999 23 18.343 23 19.9997C23 21.6566 21.6567 22.9998 19.9999 22.9998Z" fill="url(#paint1_linear)"/>
<path d="M25.8841 15.1958C25.8841 15.7922 25.4006 16.2758 24.8042 16.2758C24.2076 16.2758 23.7241 15.7922 23.7241 15.1958C23.7241 14.5993 24.2076 14.1157 24.8042 14.1157C25.4006 14.1157 25.8841 14.5993 25.8841 15.1958Z" fill="url(#paint2_linear)"/>
<defs>
<linearGradient id="paint0_linear" x1="12.5105" y1="27.4893" x2="27.4895" y2="12.5104" gradientUnits="userSpaceOnUse">
<stop stop-color="#FFD600"/>
<stop offset="0.5" stop-color="#FF0100"/>
<stop offset="1" stop-color="#D800B9"/>
</linearGradient>
<linearGradient id="paint1_linear" x1="16.732" y1="23.2678" x2="23.2679" y2="16.7318" gradientUnits="userSpaceOnUse">
<stop stop-color="#FF6400"/>
<stop offset="0.5" stop-color="#FF0100"/>
<stop offset="1" stop-color="#FD0056"/>
</linearGradient>
<linearGradient id="paint2_linear" x1="24.0405" y1="15.9594" x2="25.5678" y2="14.4321" gradientUnits="userSpaceOnUse">
<stop stop-color="#F30072"/>
<stop offset="1" stop-color="#E50097"/>
</linearGradient>
</defs>
</svg>
