<?xml version="1.0" encoding="utf-8"?>
<!-- Generator: Adobe Illustrator 19.2.1, SVG Export Plug-In . SVG Version: 6.00 Build 0)  -->
<svg version="1.1" id="Layer_1" xmlns="http://www.w3.org/2000/svg" xmlns:xlink="http://www.w3.org/1999/xlink" x="0px" y="0px"
	 viewBox="0 0 64.7 132.2" style="enable-background:new 0 0 64.7 132.2;" xml:space="preserve">
<style type="text/css">
	.st0{fill:none;stroke:#B93D2E;stroke-width:0.2;stroke-miterlimit:10;}
</style>
<rect x="2.2" y="12.6" class="st0" width="60.2" height="107"/>
<path class="st0" d="M0.1,126.1V6.1c0-3.3,2.7-6,6-6h52.5c3.3,0,6,2.7,6,6v120c0,3.3-2.7,6-6,6H6.1C2.8,132.1,0.1,129.4,0.1,126.1z"
	/>
<path class="st0" d="M44.7,129.3H19.9c-0.8,0-1.4-0.6-1.4-1.4l0,0c0-0.8,0.6-1.4,1.4-1.4h24.8c0.8,0,1.4,0.6,1.4,1.4l0,0
	C46.2,128.6,45.5,129.3,44.7,129.3z"/>
<path class="st0" d="M44.7,5.8H19.9c-0.8,0-1.4-0.6-1.4-1.4l0,0c0-0.8,0.6-1.4,1.4-1.4h24.8c0.8,0,1.4,0.6,1.4,1.4l0,0
	C46.2,5.1,45.5,5.8,44.7,5.8z"/>
</svg>
