<svg width="40" height="40" viewBox="0 0 40 40" fill="none" xmlns="http://www.w3.org/2000/svg">
<circle cx="20" cy="20" r="19.5" stroke="#8FE1B6"/>
<g clip-path="url(#clip0)">
<path d="M28.3662 21.4196C28.9032 16.8994 28.1082 14.0456 26.6742 12.7549L26.675 12.7541C24.3605 10.5499 16.544 10.2236 13.775 12.8531C12.5315 14.1394 12.0935 16.0271 12.0455 18.3641C11.9975 20.7019 11.9405 25.0811 16.0212 26.2691H16.025L16.0212 28.0834C16.0212 28.0834 15.9935 28.8184 16.463 28.9661C17 29.1401 17.243 28.7989 18.9132 26.8039C21.7062 27.0461 23.8512 26.4911 24.095 26.4101C24.659 26.2211 27.8502 25.7989 28.3662 21.4196ZM19.1885 25.5274C19.1885 25.5274 17.4207 27.7316 16.871 28.3039C16.691 28.4899 16.4937 28.4726 16.4967 28.1036C16.4967 27.8614 16.5102 25.0916 16.5102 25.0916C13.0505 24.1001 13.2545 20.3711 13.292 18.4204C13.3295 16.4689 13.6865 14.8706 14.7395 13.7944C17.1687 11.5166 24.0215 12.0259 25.7675 13.6669C27.902 15.5591 27.1422 20.9051 27.1467 21.0874C26.708 24.7429 24.122 24.9746 23.6465 25.1329C23.4432 25.2004 21.557 25.6856 19.1885 25.5274Z" fill="#8E24AA"/>
<path d="M20.1665 14.2227C19.8778 14.2227 19.8778 14.6727 20.1665 14.6764C22.4068 14.6937 24.2518 16.2552 24.272 19.1194C24.272 19.4217 24.7145 19.4179 24.7108 19.1157H24.71C24.686 16.0294 22.6715 14.2399 20.1665 14.2227Z" fill="#8E24AA"/>
<path d="M23.1132 18.6445C23.1065 18.943 23.5482 18.9573 23.552 18.655C23.5887 16.9533 22.5395 15.5515 20.5677 15.4038C20.279 15.3828 20.249 15.8365 20.537 15.8575C22.247 15.9873 23.1477 17.1543 23.1132 18.6445Z" fill="#8E24AA"/>
<path d="M22.6407 20.5806C22.2702 20.3661 21.893 20.4996 21.737 20.7103L21.4107 21.1326C21.245 21.3471 20.9353 21.3186 20.9353 21.3186C18.6748 20.7208 18.0703 18.3553 18.0703 18.3553C18.0703 18.3553 18.0425 18.0351 18.2495 17.8633L18.6575 17.5258C18.8615 17.3638 18.9905 16.9738 18.7828 16.5906C18.2278 15.5878 17.855 15.2421 17.6653 14.9766C17.4658 14.7268 17.1658 14.6706 16.8538 14.8393H16.847C16.1983 15.2188 15.488 15.9291 15.7153 16.6603C16.103 17.4313 16.8155 19.8891 19.0865 21.7461C20.1538 22.6243 21.8427 23.5243 22.5597 23.7321L22.5665 23.7426C23.273 23.9781 23.96 23.2401 24.3267 22.5718V22.5666C24.4895 22.2433 24.4355 21.9373 24.1977 21.7371C23.7762 21.3261 23.1402 20.8723 22.6407 20.5806Z" fill="#8E24AA"/>
<path d="M20.8768 17.078C21.5975 17.12 21.947 17.4965 21.9845 18.2698C21.998 18.572 22.4368 18.551 22.4233 18.2488C22.3753 17.2393 21.8488 16.6768 20.9008 16.6243C20.612 16.607 20.585 17.0608 20.8768 17.078Z" fill="#8E24AA"/>
</g>
<defs>
<clipPath id="clip0">
<rect width="18" height="18" fill="white" transform="translate(11 11)"/>
</clipPath>
</defs>
</svg>
