<svg width="40" height="40" viewBox="0 0 40 40" fill="none" xmlns="http://www.w3.org/2000/svg">
<circle cx="20" cy="20" r="19.5" stroke="#8FE1B6"/>
<g clip-path="url(#clip0)">
<path d="M11.4182 29C11.3171 29 11.2188 28.96 11.1458 28.8863C11.0497 28.7891 11.0126 28.6479 11.0487 28.5159L12.2189 24.2428C11.4904 22.9254 11.1063 21.4351 11.1068 19.9223C11.1089 15.0025 15.1126 11 20.032 11C22.4181 11.001 24.6601 11.9304 26.3453 13.6168C28.0302 15.3033 28.9577 17.5452 28.957 19.9294C28.9548 24.8494 24.9511 28.8521 20.032 28.8521C20.032 28.8521 20.0283 28.8521 20.0281 28.8521C18.5913 28.8515 17.1668 28.5014 15.8984 27.8381L11.5152 28.9875C11.4831 28.9959 11.4504 29 11.4182 29Z" fill="#E5E5E5"/>
<path d="M11.4182 28.6168L12.6299 24.1916C11.8825 22.8965 11.4893 21.4273 11.4898 19.9222C11.4918 15.2136 15.3235 11.3828 20.032 11.3828C22.3169 11.3838 24.4615 12.2731 26.0743 13.8873C27.687 15.5014 28.5748 17.6471 28.574 19.9291C28.5719 24.6375 24.7396 28.4689 20.032 28.4689C20.0317 28.4689 20.0321 28.4689 20.032 28.4689H20.0283C18.5987 28.4683 17.1941 28.1098 15.9464 27.4293L11.4182 28.6168ZM16.1561 25.8834L16.4156 26.0371C17.5054 26.6839 18.755 27.026 20.0292 27.0267H20.032C23.945 27.0267 27.13 23.8423 27.1316 19.9285C27.1323 18.0319 26.3946 16.2484 25.0541 14.9068C23.7135 13.5652 21.9311 12.826 20.0346 12.8252C16.1184 12.8252 12.9336 16.0092 12.9321 19.9228C12.9315 21.2639 13.3067 22.5699 14.0175 23.7001L14.1864 23.9688L13.469 26.5879L16.1561 25.8834Z" fill="white"/>
<path d="M11.7152 28.3188L12.8851 24.0466C12.1633 22.7964 11.7839 21.3779 11.7843 19.9251C11.7861 15.3795 15.4853 11.6814 20.0305 11.6814C22.2365 11.6824 24.3071 12.5409 25.8637 14.0992C27.4207 15.6575 28.2776 17.7288 28.2768 19.9316C28.2749 24.4773 24.5755 28.1759 20.0309 28.1759C20.0305 28.1759 20.031 28.1759 20.0309 28.1759H20.0272C18.6472 28.1753 17.291 27.829 16.0867 27.1725L11.7152 28.3188Z" fill="#64B161"/>
<path d="M11.4182 28.6168L12.6299 24.1916C11.8825 22.8965 11.4893 21.4273 11.4898 19.9222C11.4918 15.2136 15.3235 11.3828 20.032 11.3828C22.3169 11.3838 24.4615 12.2731 26.0743 13.8873C27.687 15.5014 28.5748 17.6471 28.574 19.9291C28.5719 24.6375 24.7396 28.4689 20.032 28.4689C20.0317 28.4689 20.0321 28.4689 20.032 28.4689H20.0283C18.5987 28.4683 17.1941 28.1098 15.9464 27.4293L11.4182 28.6168ZM16.1561 25.8834L16.4156 26.0371C17.5054 26.6839 18.755 27.026 20.0292 27.0267H20.032C23.945 27.0267 27.13 23.8423 27.1316 19.9285C27.1323 18.0319 26.3946 16.2484 25.0541 14.9068C23.7135 13.5652 21.9311 12.826 20.0346 12.8252C16.1184 12.8252 12.9336 16.0092 12.9321 19.9228C12.9315 21.2639 13.3067 22.5699 14.0175 23.7001L14.1864 23.9688L13.469 26.5879L16.1561 25.8834Z" fill="white"/>
<path fill-rule="evenodd" clip-rule="evenodd" d="M17.897 16.3521C17.7372 15.9967 17.5688 15.9895 17.4167 15.9834C17.2923 15.978 17.1498 15.9783 17.0077 15.9783C16.8654 15.9783 16.6342 16.0318 16.4386 16.2454C16.2429 16.4589 15.6914 16.9753 15.6914 18.0254C15.6914 19.0757 16.4563 20.0905 16.563 20.233C16.6697 20.3754 18.0396 22.5993 20.209 23.4549C22.012 24.166 22.3788 24.0245 22.7702 23.989C23.1616 23.9534 24.0329 23.4726 24.2107 22.9742C24.3887 22.4759 24.3887 22.0488 24.3353 21.9594C24.2819 21.8705 24.1396 21.8171 23.9262 21.7104C23.7128 21.6037 22.6635 21.0872 22.4678 21.0161C22.2721 20.9448 22.1298 20.9093 21.9875 21.123C21.8451 21.3364 21.4364 21.8171 21.3119 21.9594C21.1873 22.1021 21.0628 22.1199 20.8493 22.0131C20.6359 21.9061 19.9485 21.6809 19.133 20.9537C18.4985 20.388 18.0701 19.6893 17.9455 19.4756C17.8211 19.2622 17.9435 19.1568 18.0393 19.0402C18.2119 18.8302 18.5016 18.4527 18.5727 18.3104C18.6438 18.1678 18.6083 18.0433 18.555 17.9364C18.5016 17.8297 18.0867 16.7742 17.897 16.3521Z" fill="white"/>
</g>
<defs>
<clipPath id="clip0">
<rect width="18" height="18" fill="white" transform="translate(11 11)"/>
</clipPath>
</defs>
</svg>
